<svg width="188" height="146" viewBox="0 0 188 146" fill="none" xmlns="http://www.w3.org/2000/svg">
<g clip-path="url(#clip0_175_114)">
<path d="M87.1211 146C135.237 146 174.242 144.711 174.242 143.121C174.242 141.531 135.237 140.242 87.1211 140.242C39.0054 140.242 0 141.531 0 143.121C0 144.711 39.0054 146 87.1211 146Z" fill="#E6E6E6"/>
<path d="M85.813 46.8026C91.7372 46.8026 96.5397 41.9981 96.5397 36.0714C96.5397 30.1448 91.7372 25.3403 85.813 25.3403C79.8889 25.3403 75.0864 30.1448 75.0864 36.0714C75.0864 41.9981 79.8889 46.8026 85.813 46.8026Z" fill="#C6B438"/>
<path d="M82.9757 60.8837L78.1218 57.1675L60.7449 88.6545C60.1991 88.7537 59.6946 89.0114 59.2943 89.3955C58.8939 89.7795 58.6154 90.273 58.4935 90.8143C58.3715 91.3557 58.4115 91.9209 58.6085 92.4397C58.8054 92.9585 59.1506 93.4078 59.6011 93.7316C60.0515 94.0554 60.5873 94.2394 61.1416 94.2608C61.6958 94.2821 62.2441 94.1397 62.7181 93.8514C63.1921 93.5631 63.5707 93.1417 63.8069 92.6396C64.0431 92.1375 64.1263 91.577 64.0463 91.0279L82.9757 60.8837Z" fill="#FFB8B8"/>
<path d="M127.28 78.7552C127.082 78.1807 126.704 77.6854 126.202 77.3427C125.7 77.0001 125.101 76.8282 124.494 76.8526L96.4964 54.8811L92.2969 59.3238L121.791 79.8904C121.821 80.2913 121.937 80.6811 122.129 81.034C122.322 81.3868 122.587 81.6945 122.908 81.9365C123.229 82.1785 123.598 82.3493 123.99 82.4374C124.382 82.5256 124.788 82.5291 125.182 82.4477C125.575 82.3663 125.947 82.2019 126.272 81.9655C126.597 81.729 126.868 81.4259 127.066 81.0765C127.265 80.727 127.387 80.3392 127.424 79.9389C127.461 79.5387 127.412 79.1351 127.28 78.7552Z" fill="#FFB8B8"/>
<path d="M94.7866 140.036H98.0852L99.6549 127.309H94.7866V140.036Z" fill="#FFB8B8"/>
<path d="M104.446 143.101H94.0798V139.094H100.441C101.503 139.094 102.522 139.516 103.273 140.267C104.024 141.019 104.446 142.038 104.446 143.101Z" fill="#2F2E41"/>
<path d="M68.6504 137.09L71.6808 138.393L78.1466 127.32L73.6738 125.397L68.6504 137.09Z" fill="#FFB8B8"/>
<path d="M76.3159 143.721L66.7917 139.626L68.3731 135.945L74.2176 138.458C75.1935 138.877 75.9629 139.668 76.3564 140.655C76.7499 141.642 76.7353 142.745 76.3159 143.721Z" fill="#2F2E41"/>
<path d="M78.9315 79.0089L63.2407 128.46L83.8349 130.667L85.8127 101.767L88.4931 130.667L105.165 128.705C105.165 128.705 102.153 82.9332 96.6715 79.99C91.1899 77.0467 78.9315 79.0089 78.9315 79.0089Z" fill="#2F2E41"/>
<path d="M87.4394 49.3895C91.2307 49.3895 94.3041 46.3148 94.3041 42.5219C94.3041 38.729 91.2307 35.6543 87.4394 35.6543C83.6481 35.6543 80.5747 38.729 80.5747 42.5219C80.5747 46.3148 83.6481 49.3895 87.4394 49.3895Z" fill="#FFB8B8"/>
<path d="M87.2196 81.2256C82.453 81.2256 77.8657 81.0142 77.6292 80.6043C77.6092 80.5698 77.6016 80.5295 77.6077 80.4902C77.6138 80.4508 77.6333 80.4147 77.6628 80.388C77.9908 79.9049 77.2208 72.0526 75.5996 59.3874C75.4159 57.9042 75.7438 56.4027 76.5292 55.1314C77.3146 53.8601 78.5104 52.8951 79.9186 52.3962L79.9489 52.3893L94.3157 50.97L94.4767 51.0152C95.8978 51.4106 97.1423 52.2777 98.0056 53.4743C98.8689 54.6708 99.2997 56.1256 99.2272 57.5995C98.8568 65.6787 98.2351 79.3628 98.2351 80.2352C98.2351 80.4726 97.9049 80.5915 97.6172 80.6687C96.2184 81.0436 91.6418 81.2256 87.2196 81.2256Z" fill="#2F2E41"/>
<path d="M29.2108 24.1366L13.1914 44.1638L33.2102 60.1899L49.2296 40.1627L29.2108 24.1366Z" fill="#F2F2F2"/>
<path d="M33.071 64.6864C31.9456 64.5148 30.8964 64.0132 30.056 63.245C29.2155 62.4768 28.6217 61.4765 28.3495 60.3707C28.0774 59.2649 28.1391 58.1031 28.5269 57.0324C28.9147 55.9617 29.6112 55.03 30.5282 54.3553C31.4453 53.6805 32.5418 53.293 33.679 53.2417C34.8162 53.1904 35.9431 53.4776 36.9172 54.067C37.8913 54.6564 38.6687 55.5215 39.1513 56.553C39.6339 57.5844 39.7999 58.7359 39.6284 59.8618C39.5145 60.6093 39.2545 61.3271 38.8633 61.9741C38.4721 62.6211 37.9574 63.1847 37.3485 63.6327C36.7396 64.0807 36.0484 64.4044 35.3145 64.5852C34.5805 64.766 33.8182 64.8004 33.071 64.6864ZM34.7269 53.8191C33.7038 53.6631 32.6575 53.8141 31.7202 54.253C30.7829 54.6919 29.9967 55.399 29.4611 56.2848C28.9255 57.1707 28.6645 58.1956 28.7112 59.2299C28.7578 60.2642 29.11 61.2614 29.7231 62.0954C30.3362 62.9295 31.1828 63.5629 32.1558 63.9156C33.1288 64.2683 34.1845 64.3244 35.1894 64.0769C36.1943 63.8294 37.1032 63.2893 37.8012 62.5249C38.4993 61.7606 38.9551 60.8064 39.1111 59.7829C39.3186 58.4106 38.9736 57.0121 38.1517 55.894C37.3298 54.776 36.0981 54.0298 34.7269 53.8191Z" fill="#3F3D56"/>
<path d="M20.8195 129.612C18.8547 136.178 21.904 142.891 21.904 142.891C21.904 142.891 28.1389 138.958 30.1036 132.392C32.0684 125.826 29.0191 119.113 29.0191 119.113C29.0191 119.113 22.7842 123.046 20.8195 129.612Z" fill="#E6E6E6"/>
<path d="M23.8026 129.789C25.4562 136.44 22.0944 143.002 22.0944 143.002C22.0944 143.002 16.0515 138.781 14.3978 132.129C12.7442 125.478 16.106 118.916 16.106 118.916C16.106 118.916 22.1489 123.138 23.8026 129.789Z" fill="#E6E6E6"/>
<path d="M77.7856 37.9732C81.4362 39.9616 85.5452 40.9548 89.7006 40.8532C91.2922 40.8119 93.0458 40.5223 94.0537 39.2893C95.1911 37.8982 94.9065 35.7245 93.8094 34.3013C92.7123 32.8782 90.9959 32.0759 89.2838 31.5318C87.6638 31.017 85.928 30.6855 84.2667 31.0453C83.39 31.2352 82.5644 31.6118 81.8462 32.1494C81.128 32.687 80.5339 33.3731 80.1043 34.1609C79.6748 34.9487 79.4199 35.8198 79.3569 36.715C79.2939 37.6102 79.4244 38.5084 79.7394 39.3487" fill="#C6B438"/>
<path d="M78.2259 34.5012C81.5492 34.5012 84.2432 31.806 84.2432 28.4813C84.2432 25.1566 81.5492 22.4614 78.2259 22.4614C74.9026 22.4614 72.2085 25.1566 72.2085 28.4813C72.2085 31.806 74.9026 34.5012 78.2259 34.5012Z" fill="#C6B438"/>
<path d="M186.961 29.1486L163.34 15.3758L166.37 10.1749C166.456 10.0264 166.513 9.86235 166.536 9.69205C166.559 9.52176 166.548 9.34858 166.505 9.18239C166.461 9.01621 166.385 8.86028 166.281 8.72351C166.177 8.58673 166.047 8.47179 165.898 8.38525C165.75 8.29871 165.586 8.24226 165.416 8.21913C165.246 8.19599 165.072 8.20663 164.906 8.25043C164.74 8.29422 164.584 8.37032 164.448 8.47438C164.311 8.57844 164.196 8.70842 164.11 8.8569L161.08 14.0578L137.459 0.285087C136.979 0.0054509 136.408 -0.072137 135.872 0.0693889C135.335 0.210915 134.876 0.559962 134.597 1.03975L116.153 32.6979C115.873 33.1777 115.796 33.7489 115.937 34.2859C116.079 34.8229 116.428 35.2817 116.907 35.5614L140.528 49.3341L119.845 84.8365C119.758 84.9849 119.701 85.149 119.678 85.3193C119.655 85.4897 119.666 85.6629 119.71 85.8291C119.753 85.9953 119.829 86.1513 119.933 86.2881C120.037 86.4249 120.167 86.5399 120.316 86.6264C120.464 86.713 120.628 86.7694 120.799 86.7925C120.969 86.8157 121.142 86.805 121.308 86.7612C121.474 86.7173 121.63 86.6412 121.767 86.537C121.904 86.4329 122.018 86.3029 122.105 86.1543L142.788 50.652L166.409 64.4247C166.646 64.5632 166.909 64.6535 167.181 64.6906C167.453 64.7276 167.73 64.7106 167.996 64.6405C168.262 64.5704 168.511 64.4486 168.73 64.2821C168.949 64.1156 169.133 63.9077 169.271 63.6701L187.715 32.012C187.853 31.7744 187.944 31.5119 187.981 31.2394C188.018 30.967 188.001 30.6899 187.93 30.424C187.86 30.1581 187.739 29.9086 187.572 29.6898C187.406 29.4709 187.198 29.2871 186.961 29.1486Z" fill="#3F3D56"/>
<path opacity="0.1" d="M154.2 48.2176C154.927 46.9688 151.672 43.7141 146.928 40.9481C142.184 38.1821 137.749 36.9522 137.021 38.2011C136.293 39.45 139.549 42.7047 144.293 45.4707C149.037 48.2367 153.472 49.4665 154.2 48.2176Z" fill="black"/>
<path d="M151.934 44.9183C158.87 44.9183 164.492 39.2935 164.492 32.355C164.492 25.4165 158.87 19.7917 151.934 19.7917C144.998 19.7917 139.376 25.4165 139.376 32.355C139.376 39.2935 144.998 44.9183 151.934 44.9183Z" fill="#C6B438"/>
<path d="M157.397 38.5702C156.67 39.8191 151.538 40.6067 147.793 38.4231C144.048 36.2394 143.108 31.9113 143.835 30.6624C144.563 29.4135 146.683 31.7168 150.428 33.9005C154.173 36.0842 158.125 37.3214 157.397 38.5702Z" fill="#F2F2F2"/>
<path d="M149.201 28.2286C150.646 28.2286 151.817 27.0568 151.817 25.6112C151.817 24.1657 150.646 22.9939 149.201 22.9939C147.756 22.9939 146.584 24.1657 146.584 25.6112C146.584 27.0568 147.756 28.2286 149.201 28.2286Z" fill="#F2F2F2"/>
<path d="M158.694 33.764C160.139 33.764 161.311 32.5922 161.311 31.1466C161.311 29.7011 160.139 28.5293 158.694 28.5293C157.249 28.5293 156.078 29.7011 156.078 31.1466C156.078 32.5922 157.249 33.764 158.694 33.764Z" fill="#F2F2F2"/>
</g>
<defs>
<clipPath id="clip0_175_114">
<rect width="188" height="146" fill="white"/>
</clipPath>
</defs>
</svg>
